<svg xmlns="http://www.w3.org/2000/svg" xmlns:xlink="http://www.w3.org/1999/xlink" width="28" height="28" viewBox="0 0 28 28"><defs><path id="fvcua" d="M1290.85 65.7A13.79 13.79 0 0 1 1277 52c0-7.55 6.21-13.7 13.85-13.7 7.63 0 13.85 6.15 13.85 13.7 0 7.55-6.22 13.7-13.85 13.7m0-26.2c-6.97 0-12.63 5.6-12.63 12.5 0 6.89 5.66 12.5 12.63 12.5 6.96 0 12.63-5.61 12.63-12.5 0-6.9-5.67-12.5-12.63-12.5"/><path id="fvcub" d="M1290.85 65.7c-4.56 0-8.27-6.15-8.27-13.7 0-7.55 3.7-13.7 8.27-13.7 4.56 0 8.26 6.15 8.26 13.7 0 7.55-3.7 13.7-8.26 13.7m0-26.2c-3.9 0-7.05 5.6-7.05 12.5 0 6.89 3.16 12.5 7.04 12.5 3.89 0 7.04-5.61 7.04-12.5 0-6.9-3.15-12.5-7.04-12.5"/><path id="fvcuc" d="M1290.85 65.7a.6.6 0 0 1-.61-.6V38.9c0-.33.27-.6.6-.6 7.65 0 13.86 6.15 13.86 13.7 0 7.55-6.21 13.7-13.85 13.7m.6-26.18v24.96A12.57 12.57 0 0 0 1303.49 52c0-6.69-5.34-12.17-12.02-12.48"/><path id="fvcud" d="M1303.22 57.22h-24.75a.6.6 0 0 1-.57-.4 13.53 13.53 0 0 1 0-9.65.6.6 0 0 1 .57-.39h24.75c.26 0 .48.16.57.39a13.52 13.52 0 0 1 0 9.66.61.61 0 0 1-.57.39m-24.32-1.2h23.9a12.26 12.26 0 0 0 0-8.04h-23.9a12.24 12.24 0 0 0 0 8.03"/></defs><g><g transform="translate(-1277 -38)"><g><use fill="#007397" xlink:href="#fvcua"/></g><g><use fill="#007397" xlink:href="#fvcub"/></g><g><use fill="#007397" xlink:href="#fvcuc"/></g><g><use fill="#007397" xlink:href="#fvcud"/></g></g></g></svg>