<svg xmlns="http://www.w3.org/2000/svg" xmlns:xlink="http://www.w3.org/1999/xlink" width="172" height="20" viewBox="0 0 172 20"><defs><path id="loeva" d="M295.2 41.78a6.51 6.51 0 0 0-2.9 2.22 5.64 5.64 0 0 0-1.02 3.35c0 1.32.34 2.37 1 3.16a6.1 6.1 0 0 0 2.39 1.74c.92.37 2.06.73 3.43 1.06 1.12.28 1.94.54 2.44.77.51.23.77.56.77.99 0 .67-.52 1-1.55 1-1 0-2.22-.3-3.7-.9-1.47-.6-2.7-1.31-3.67-2.13L290 57.88c1.28 1 2.79 1.76 4.53 2.3 1.74.55 3.46.82 5.17.82 1.51 0 2.89-.23 4.12-.68a6.41 6.41 0 0 0 2.95-2.08 5.54 5.54 0 0 0 1.08-3.5 5 5 0 0 0-1.03-3.3 6.37 6.37 0 0 0-2.4-1.83c-.92-.39-2.07-.77-3.48-1.14a15.26 15.26 0 0 1-2.37-.77c-.5-.23-.74-.55-.74-.96 0-.54.4-.81 1.18-.81.8 0 1.83.23 3.11.69 1.29.46 2.47 1 3.56 1.6l2.32-4.9c-1.1-.71-2.41-1.28-3.91-1.7-1.5-.41-3.01-.62-4.52-.62-1.66 0-3.11.26-4.37.78zm-23 0a6.51 6.51 0 0 0-2.9 2.22 5.64 5.64 0 0 0-1.02 3.35c0 1.32.34 2.37 1 3.16a6.1 6.1 0 0 0 2.39 1.74c.92.37 2.06.73 3.43 1.06 1.12.28 1.94.54 2.44.77.51.23.77.56.77.99 0 .67-.52 1-1.55 1-1 0-2.22-.3-3.7-.9-1.47-.6-2.7-1.31-3.67-2.13L267 57.88c1.28 1 2.79 1.76 4.53 2.3 1.74.55 3.46.82 5.17.82 1.51 0 2.89-.23 4.12-.68a6.41 6.41 0 0 0 2.95-2.08 5.54 5.54 0 0 0 1.08-3.5 5 5 0 0 0-1.03-3.3 6.37 6.37 0 0 0-2.4-1.83c-.92-.39-2.07-.77-3.48-1.14a15.26 15.26 0 0 1-2.37-.77c-.5-.23-.74-.55-.74-.96 0-.54.4-.81 1.18-.81.8 0 1.83.23 3.11.69 1.29.46 2.47 1 3.56 1.6l2.32-4.9c-1.1-.71-2.41-1.28-3.91-1.7-1.5-.41-3.01-.62-4.52-.62-1.66 0-3.11.26-4.37.78zm-9.45 4.25V41H246v20h17v-5.01h-10.44v-2.5h9.25v-5.01h-9.25v-2.45zM239 61V41h-5.86v10.28L225.42 41H220v20h5.9V50.8l7.7 10.2zm-25 0V41h-7v20zm-24.8-19.22a6.51 6.51 0 0 0-2.9 2.22 5.64 5.64 0 0 0-1.02 3.35c0 1.32.34 2.37 1 3.16a6.1 6.1 0 0 0 2.39 1.74c.92.37 2.06.73 3.43 1.06 1.12.28 1.94.54 2.44.77.51.23.77.56.77.99 0 .67-.52 1-1.55 1-1 0-2.22-.3-3.7-.9-1.47-.6-2.7-1.31-3.67-2.13L184 57.88c1.28 1 2.79 1.76 4.53 2.3 1.74.55 3.46.82 5.17.82 1.51 0 2.89-.23 4.12-.68a6.41 6.41 0 0 0 2.95-2.08 5.54 5.54 0 0 0 1.08-3.5 5 5 0 0 0-1.03-3.3 6.37 6.37 0 0 0-2.4-1.83c-.92-.39-2.07-.77-3.48-1.14a15.26 15.26 0 0 1-2.37-.77c-.5-.23-.74-.55-.74-.96 0-.54.4-.81 1.18-.81.8 0 1.83.23 3.11.69 1.29.46 2.47 1 3.56 1.6l2.32-4.9c-1.1-.71-2.41-1.28-3.91-1.7-1.5-.41-3.01-.62-4.52-.62-1.66 0-3.11.26-4.37.78zM178 41h-6.55v11.37a3.3 3.3 0 0 1-.8 2.33c-.54.58-1.23.87-2.05.87-.85 0-1.57-.3-2.16-.9-.6-.6-.9-1.36-.9-2.3V41H159v11.37c0 1.73.4 3.24 1.19 4.54a7.87 7.87 0 0 0 3.35 3.03c1.45.7 3.13 1.06 5.03 1.06 1.9 0 3.56-.35 4.98-1.06a7.75 7.75 0 0 0 3.3-3.03 8.75 8.75 0 0 0 1.15-4.54zm-37 12h3.67c.7 0 1.26.13 1.69.39.43.26.64.6.64 1.03 0 .47-.21.85-.64 1.14-.42.3-.98.44-1.7.44H141zm2-6h2.71c.4 0 .7.09.94.27.23.18.35.42.35.71a.9.9 0 0 1-.35.74c-.24.19-.55.28-.94.28H143zm-7-6v20h10.24c1.55 0 2.92-.23 4.08-.68a6.06 6.06 0 0 0 2.71-1.97c.65-.85.97-1.84.97-2.96 0-1.27-.35-2.36-1.05-3.28a4.73 4.73 0 0 0-2.78-1.78c1-.3 1.79-.85 2.37-1.63.59-.78.88-1.66.88-2.64 0-1.02-.3-1.9-.93-2.66a5.96 5.96 0 0 0-2.67-1.77 11.93 11.93 0 0 0-4.05-.63z"/></defs><g><g transform="translate(-136 -41)"><use fill="#007397" xlink:href="#loeva"/></g></g></svg>